<svg id="Layer_1" enable-background="new 0 0 511.448 511.448" height="512" viewBox="0 0 511.448 511.448" width="512" xmlns="http://www.w3.org/2000/svg"><path d="m490.394 255.724c0 167.796-171.058 280.584-324.59 216.82-84.98-35.28-144.75-119.07-144.75-216.82 0-129.6 105.07-234.67 234.67-234.67 129.636 0 234.67 105.104 234.67 234.67z" fill="#ffec8f"/><path d="m490.394 255.724c0 167.796-171.058 280.584-324.59 216.82-82.001-153.969 28.595-344.82 207.25-344.82 31.86 0 62.23 6.35 89.93 17.85 17.49 32.84 27.41 70.34 27.41 110.15z" fill="#ffe773"/><path d="m436.508 74.94c-99.913-99.913-261.64-99.928-361.567 0-99.913 99.913-99.928 261.64 0 361.567 99.913 99.913 261.64 99.928 361.567 0 99.912-99.912 99.927-261.639 0-361.567zm-180.784 394.45c-117.816 0-213.667-95.851-213.667-213.667s95.851-213.666 213.667-213.666 213.666 95.851 213.666 213.667-95.85 213.666-213.666 213.666z"/><path d="m331.676 244.75c9.565-16.143 9.048-29.335 9.048-41.026 0-27.998-17.794-51.918-42.667-61.047v-25.62c0-11.598-9.402-21-21-21s-21 9.402-21 21v21.667h-22v-21.667c0-11.598-9.402-21-21-21s-21 9.402-21 21v21.667c-12.524 0-21.333 9.865-21.333 21v192c0 11.135 8.81 21 21.333 21v21.667c0 11.598 9.402 21 21 21s21-9.402 21-21v-21.667h22v21.667c0 11.598 9.402 21 21 21s21-9.402 21-21v-21.692c35.38-.539 64-29.469 64-64.975v-8c0-23.122-12.145-43.449-30.381-54.974zm-32.952-33.026c0 12.682-10.318 23-23 23h-63v-54h63c12.682 0 23 10.318 23 23zm21.333 96c0 12.682-10.318 23-23 23h-84.333v-54h84.333c12.682 0 23 10.318 23 23z"/></svg>